<svg width="18" height="18" viewBox="0 0 18 18" fill="none" xmlns="http://www.w3.org/2000/svg">
<path fill-rule="evenodd" clip-rule="evenodd" d="M14.5 2C15.16 2 15.72 2.42 15.92 3.01L17.89 8.68C17.96 8.89 18 9.12 18 9.34V16.5C18 17.33 17.32 18 16.5 18C15.67 18 15 17.32 15 16.5V16H3V16.5C3 17.33 2.33 18 1.5 18C0.67 18 0 17.33 0 16.5V9.34C0 9.11 0.04 8.89 0.11 8.68L2.08 3.01C2.29 2.42 2.84 2 3.5 2H6V1C6 0.45 6.45 0 7 0H11C11.55 0 12 0.45 12 1V2H14.5ZM2 11.5C2 12.33 2.67 13 3.5 13C4.33 13 5 12.33 5 11.5C5 10.67 4.33 10 3.5 10C2.67 10 2 10.67 2 11.5ZM14.5 13C13.67 13 13 12.33 13 11.5C13 10.67 13.67 10 14.5 10C15.33 10 16 10.67 16 11.5C16 12.33 15.33 13 14.5 13ZM3.5 3.5L2 8H16L14.5 3.5H3.5Z" fill="#BEBEBE"/>
</svg>
