<svg width="28" height="28" viewBox="0 0 28 28" fill="none" xmlns="http://www.w3.org/2000/svg">
<g id="ic_call">
<path id="icon/communication/call_24px" d="M22.4254 17.8129L19.4621 17.4746C18.7504 17.3929 18.0504 17.6379 17.5488 18.1396L15.4021 20.2862C12.1004 18.6062 9.39375 15.9112 7.71375 12.5979L9.87209 10.4396C10.3738 9.93791 10.6188 9.23791 10.5371 8.52624L10.1988 5.58624C10.0588 4.40791 9.06709 3.52124 7.87709 3.52124H5.85875C4.54042 3.52124 3.44375 4.61791 3.52542 5.93624C4.14375 15.8996 12.1121 23.8562 22.0638 24.4746C23.3821 24.5562 24.4788 23.4596 24.4788 22.1412V20.1229C24.4904 18.9446 23.6038 17.9529 22.4254 17.8129Z" fill="white"/>
</g>
</svg>
