<svg width="18" height="18" viewBox="0 0 18 18" fill="none" xmlns="http://www.w3.org/2000/svg">
<path fill-rule="evenodd" clip-rule="evenodd" d="M6.655 0.229993L11.655 1.97999C11.885 2.05999 12.125 2.04999 12.345 1.96999L15.275 0.829993C16.585 0.319993 17.995 1.27999 17.995 2.68999V14.54C17.995 15.4 17.445 16.17 16.635 16.44L12.645 17.78C12.225 17.92 11.765 17.92 11.345 17.77L6.345 16.02C6.125 15.94 5.875 15.94 5.655 16.03L2.725 17.17C1.415 17.68 0.00500107 16.72 0.00500107 15.31V3.45999C0.00500107 2.59999 0.555001 1.83999 1.365 1.55999L5.355 0.219993C5.775 0.0799933 6.235 0.0799933 6.655 0.229993ZM6.005 13.78L12.005 15.89V4.21999L6.005 2.10999V13.78Z" fill="black"/>
</svg>
