<svg width="24" height="24" viewBox="0 0 24 24" fill="none" xmlns="http://www.w3.org/2000/svg">
<path fill-rule="evenodd" clip-rule="evenodd" d="M11.9593 7.54285H11.9293C11.3893 7.54285 10.9493 7.10285 10.9493 6.55285V3.52285C10.9493 2.98285 11.3893 2.54285 11.9393 2.54285H11.9693C12.5093 2.54285 12.9493 2.98285 12.9493 3.52285V6.56285C12.9493 7.10285 12.5093 7.54285 11.9593 7.54285ZM18.2493 9.65285C17.8593 10.0428 17.2393 10.0428 16.8493 9.65285L16.8393 9.63285C16.4493 9.25285 16.4493 8.62285 16.8393 8.24285L19.0093 6.09285C19.3893 5.71285 20.0193 5.71285 20.3993 6.09285C20.7893 6.47285 20.7893 7.10285 20.3993 7.48285C19.7693 8.11285 18.8693 9.02285 18.2493 9.65285ZM5.65934 9.64285C6.03934 10.0328 6.66934 10.0328 7.05934 9.64285C7.43934 9.26285 7.43934 8.63285 7.05934 8.25285L4.90934 6.08285C4.52934 5.69285 3.89934 5.69285 3.51934 6.08285L3.49934 6.09285C3.10934 6.48285 3.10934 7.10285 3.49934 7.48285C4.12934 8.10285 5.03934 9.01285 5.65934 9.64285ZM0.759344 16.7728C7.16934 11.1128 16.8293 11.1128 23.2393 16.7728C24.0893 17.5228 24.0893 18.8528 23.2993 19.6528L22.0793 20.8728C21.3593 21.5928 20.2193 21.6528 19.4193 21.0228L17.4293 19.4428C16.9493 19.0628 16.6693 18.4828 16.6693 17.8728V15.2628C13.6393 14.2728 10.3693 14.2828 7.34934 15.2628V17.8628C7.34934 18.4728 7.06934 19.0528 6.58934 19.4328L4.58934 21.0228C3.78934 21.6528 2.64934 21.5928 1.92934 20.8728L0.709344 19.6528C-0.0906561 18.8528 -0.0906561 17.5228 0.759344 16.7728Z" fill="#BEBEBE"/>
</svg>
